<?xml version="1.0" standalone="no"?>
<!DOCTYPE svg PUBLIC "-//W3C//DTD SVG 20010904//EN"
 "http://www.w3.org/TR/2001/REC-SVG-20010904/DTD/svg10.dtd">
<svg version="1.0" xmlns="http://www.w3.org/2000/svg"
 width="738.000000pt" height="738.000000pt" viewBox="0 0 738.000000 738.000000"
 preserveAspectRatio="xMidYMid meet">

<g transform="translate(0.000000,738.000000) scale(0.100000,-0.100000)"
fill="#000000" stroke="none">
<path d="M3540 7374 c-529 -35 -959 -141 -1388 -340 -40 -19 -74 -34 -76 -34
-11 0 -283 -154 -347 -196 -41 -27 -78 -51 -84 -53 -5 -2 -12 -7 -15 -11 -3
-3 -30 -23 -60 -43 -173 -114 -496 -405 -648 -582 -28 -33 -61 -71 -73 -85
-25 -29 -106 -137 -176 -236 -174 -244 -384 -655 -458 -894 -9 -30 -23 -71
-30 -90 -51 -139 -119 -453 -151 -700 -24 -192 -26 -222 -20 -485 6 -292 17
-416 62 -645 152 -792 569 -1521 1178 -2058 601 -532 1364 -852 2171 -912 713
-52 1458 115 2080 468 140 79 362 230 493 334 161 129 438 406 568 568 473
594 744 1285 804 2049 45 580 -64 1200 -306 1751 -185 420 -434 782 -768 1116
-602 602 -1341 958 -2201 1059 -122 14 -455 26 -555 19z m134 -326 c3 -40 9
-124 12 -185 l7 -113 -35 0 -35 0 -10 133 c-9 140 -11 139 -39 -18 -10 -55
-22 -106 -27 -112 -5 -7 -23 -13 -39 -13 -16 0 -30 6 -32 13 -6 17 -67 219
-72 236 -12 38 -13 -8 -4 -119 6 -68 9 -124 8 -126 -2 -1 -16 -4 -33 -6 -26
-3 -30 1 -36 29 -3 18 -10 100 -14 183 l-7 150 55 0 55 0 38 -110 c20 -61 40
-107 44 -103 4 4 15 53 25 108 10 55 22 106 28 113 5 6 31 12 57 12 l48 0 6
-72z m333 40 c52 -35 77 -96 71 -172 -9 -109 -72 -176 -166 -176 -125 0 -182
58 -182 185 0 100 46 173 120 188 48 10 122 -2 157 -25z m252 -14 c144 -25
171 -44 171 -123 0 -44 -36 -91 -69 -91 -28 0 -32 -11 -12 -39 22 -31 61 -118
61 -136 0 -8 -11 -10 -37 -6 -36 6 -40 11 -78 86 -38 77 -78 116 -98 96 -4 -4
-13 -38 -19 -74 -11 -70 -16 -74 -65 -61 -17 5 -22 12 -18 28 7 35 32 176 46
259 7 42 15 77 17 77 3 0 48 -7 101 -16z m-1011 -21 c-3 -27 -7 -29 -93 -45
-49 -10 -91 -17 -93 -18 -4 0 8 -61 14 -71 2 -3 34 0 71 7 104 20 113 19 113
-15 0 -28 -2 -29 -72 -41 -105 -16 -101 -14 -95 -61 3 -22 8 -43 11 -46 3 -4
45 0 93 8 113 18 108 19 108 -15 l0 -30 -130 -22 c-85 -15 -132 -19 -136 -13
-11 18 -61 340 -54 347 8 9 179 39 228 41 36 1 38 -1 35 -26z m-325 -115 c54
-174 79 -260 75 -264 -3 -2 -18 -7 -35 -10 -30 -6 -31 -5 -48 52 -9 33 -25 86
-36 119 l-19 60 2 -128 c2 -136 -1 -146 -47 -147 -15 0 -35 25 -78 95 -31 52
-57 99 -57 105 0 5 -4 10 -10 10 -13 0 -13 -12 1 -47 15 -39 58 -187 55 -190
-1 -2 -17 -6 -34 -9 -22 -5 -33 -2 -36 7 -22 69 -96 323 -96 329 0 7 76 30 98
30 11 0 122 -174 122 -190 0 -6 4 -10 10 -10 5 0 8 50 7 121 l-2 122 35 13
c63 23 66 21 93 -68z m1630 73 l25 -10 -39 -153 c-21 -84 -38 -160 -38 -168 0
-18 34 20 164 182 55 69 76 88 96 88 56 0 60 -11 70 -200 11 -200 14 -218 34
-175 22 47 92 206 109 248 16 40 38 47 70 24 17 -12 14 -21 -38 -139 -31 -70
-56 -133 -56 -140 0 -7 33 -27 73 -44 72 -31 89 -51 68 -83 -8 -13 -59 7 -257
100 -22 10 -46 19 -52 19 -7 0 -12 12 -12 28 0 58 -8 67 -77 88 l-65 21 -31
-33 -32 -33 -67 17 c-36 9 -69 19 -72 22 -4 5 63 292 79 338 5 14 16 15 48 3z
m-2272 -280 c34 -34 40 -91 13 -129 -9 -13 -14 -24 -13 -25 2 -1 39 -20 82
-41 42 -22 77 -43 77 -48 0 -5 -15 -16 -34 -25 -34 -16 -36 -16 -104 20 -71
38 -105 44 -132 27 -13 -8 -10 -19 18 -72 l33 -63 -21 -17 c-42 -34 -34 -44
-155 190 -32 62 -56 113 -54 115 2 1 46 24 97 50 113 57 150 60 193 18z m3346
-196 c50 -33 73 -72 73 -122 0 -45 -5 -48 -47 -37 -17 5 -23 14 -23 36 0 36
-48 88 -82 88 -45 0 -97 -49 -124 -117 -14 -35 -14 -45 -2 -69 7 -16 25 -35
41 -42 23 -11 32 -11 62 4 34 16 37 16 55 -1 32 -29 25 -51 -22 -70 -56 -22
-106 -12 -156 31 -67 57 -79 143 -30 222 65 105 168 137 255 77z m-3640 -87
c84 -57 153 -108 153 -113 0 -6 -12 -18 -28 -27 -26 -16 -29 -15 -66 7 l-38
23 -54 -37 -55 -36 5 -46 5 -47 -82 -65 c-45 -36 -98 -79 -117 -96 -19 -17
-39 -31 -45 -31 -5 0 -32 28 -60 62 -27 35 -58 72 -67 83 -109 131 -111 136
-71 162 20 14 25 10 114 -96 51 -61 97 -111 102 -111 6 0 35 20 65 45 31 25
62 50 71 54 13 8 10 30 -22 167 l-37 159 26 23 c14 12 30 22 37 22 6 0 80 -46
164 -102z m2103 68 c556 -70 1073 -295 1495 -651 170 -144 323 -303 445 -464
14 -18 30 -38 36 -44 41 -46 181 -278 245 -407 322 -646 391 -1338 205 -2036
-25 -92 -64 -202 -93 -261 l-16 -33 -26 26 c-23 23 -26 24 -37 9 -9 -12 -13
-13 -17 -3 -4 9 -6 8 -6 -3 -1 -12 -9 -14 -31 -11 -17 2 -33 8 -35 13 -3 4
-20 2 -37 -5 -33 -14 -85 -5 -100 17 -4 7 -11 7 -21 -1 -19 -16 -72 20 -159
108 -67 68 -122 101 -300 178 -125 54 -284 54 -445 -1 -92 -31 -95 -31 -124
-14 -17 9 -40 17 -52 17 -12 0 -35 7 -51 15 -15 8 -34 15 -40 15 -7 0 -33 11
-59 23 -25 13 -60 24 -77 25 -17 0 -37 5 -43 11 -19 15 -99 41 -129 41 -15 0
-40 5 -55 11 -15 6 -37 15 -48 19 -11 5 -40 11 -65 14 -24 2 -46 10 -48 15 -2
6 -13 11 -25 12 -12 0 -44 8 -72 17 -45 15 -50 20 -47 45 2 15 -1 27 -5 27
-20 0 -63 -26 -63 -37 0 -16 -26 -17 -35 -3 -4 6 -15 8 -26 5 -16 -5 -19 -1
-19 30 0 22 4 34 10 30 6 -3 10 5 10 19 0 13 -4 26 -8 28 -5 2 -6 22 -4 45 4
37 7 43 35 49 25 5 28 8 14 16 -9 5 -17 17 -17 26 0 10 -6 27 -14 37 -9 13
-16 57 -18 115 -2 52 -8 103 -13 114 -7 15 -5 17 11 12 13 -4 29 3 47 19 32
30 34 39 8 32 -10 -2 -27 0 -37 6 -23 13 -96 18 -89 7 15 -24 -162 -49 -218
-31 -46 15 -71 65 -62 121 7 44 9 46 87 88 106 57 214 76 297 52 36 -10 55 -5
33 9 -10 6 -11 36 -7 122 15 291 15 322 4 335 -6 7 -7 19 -3 25 4 7 3 9 -3 6
-7 -4 -14 -92 -18 -224 -8 -222 -10 -251 -20 -262 -6 -5 -2 142 14 463 l6 129
44 11 c35 9 48 18 62 46 11 19 19 42 19 51 0 12 7 15 25 11 30 -5 83 46 92 90
4 21 11 28 28 28 12 0 34 12 49 26 38 39 37 105 -3 145 l-29 29 -164 0 -163 0
43 22 c108 56 196 188 213 320 11 89 -14 178 -35 123 -3 -8 -10 -15 -17 -15
-6 0 -9 6 -6 14 3 7 1 18 -5 24 -5 5 -11 63 -13 128 -3 116 -14 174 -35 174
-5 0 -16 16 -24 35 -15 35 -38 45 -52 23 -4 -6 0 -16 9 -23 9 -7 14 -15 10
-18 -3 -4 1 -7 10 -7 19 0 31 -16 22 -30 -3 -6 -16 -5 -33 2 -44 19 -62 39
-62 70 0 20 -6 31 -18 35 -11 3 -23 21 -30 48 -12 44 -12 44 -39 30 -16 -8
-35 -16 -43 -18 -9 -3 -21 -27 -29 -56 -7 -28 -17 -51 -21 -51 -8 0 -30 -41
-44 -83 -5 -15 -3 -16 14 -7 11 6 20 21 20 33 1 26 18 51 43 60 9 3 17 13 17
22 0 30 29 12 43 -28 5 -14 0 -19 -23 -24 -27 -5 -30 -9 -30 -43 0 -21 -3 -45
-6 -54 -5 -12 0 -16 18 -16 18 0 30 -10 46 -39 29 -51 28 -96 -1 -124 -51 -47
-54 -87 -7 -72 14 4 20 2 20 -8 0 -8 8 -25 18 -37 l18 -22 52 33 c51 32 53 34
47 69 -3 19 -2 47 3 60 l10 25 5 -25 c3 -14 9 -46 12 -72 4 -28 12 -49 22 -52
18 -7 11 -46 -13 -80 -15 -20 -15 -19 -12 22 2 23 0 42 -4 42 -5 0 -8 -4 -8
-10 0 -5 -11 -10 -24 -10 -14 0 -37 -5 -53 -11 -46 -18 -77 -18 -90 0 -12 14
-15 14 -34 -9 -18 -21 -19 -25 -5 -35 13 -10 11 -16 -17 -46 -18 -19 -37 -50
-42 -69 -8 -28 -16 -36 -38 -38 -16 -2 -34 2 -42 8 -11 9 -19 6 -36 -11 -15
-15 -18 -24 -11 -27 22 -7 13 -22 -13 -22 -18 0 -25 -5 -25 -20 0 -11 5 -20
11 -20 8 0 8 -5 -1 -15 -7 -8 -25 -15 -41 -15 -38 0 -37 -13 2 -27 17 -7 28
-17 24 -22 -7 -12 -105 -15 -105 -3 0 4 -27 13 -61 19 -41 8 -66 18 -76 32
-16 24 -41 27 -68 8 -17 -13 -16 -14 14 -20 22 -5 31 -12 31 -27 0 -17 -6 -20
-42 -19 -37 1 -39 2 -18 9 l25 8 -22 7 c-13 4 -23 11 -23 16 0 5 -7 9 -15 9
-8 0 -15 -9 -15 -20 0 -11 5 -20 12 -20 6 0 8 -3 4 -7 -4 -4 -21 0 -39 9 -18
9 -48 19 -67 22 -24 4 -51 22 -85 56 -72 71 -108 112 -120 134 -5 11 -16 22
-24 24 -11 4 -13 -3 -8 -33 7 -42 41 -85 68 -85 10 0 23 -9 29 -19 5 -11 22
-26 38 -33 18 -9 28 -22 30 -40 2 -20 10 -28 30 -31 15 -2 -43 -5 -129 -6
l-157 -1 -31 -35 c-34 -39 -39 -71 -16 -115 17 -32 43 -50 73 -50 12 0 22 -9
26 -22 3 -13 19 -40 36 -60 25 -30 37 -37 61 -34 23 3 29 0 29 -16 0 -47 52
-98 99 -98 20 0 23 -28 37 -372 6 -144 5 -158 -10 -158 -18 0 -59 -23 -93 -53
-13 -12 -27 -41 -33 -74 -10 -46 -9 -58 7 -91 18 -37 18 -37 -6 -74 -22 -34
-30 -38 -132 -63 -108 -27 -109 -27 -109 -57 0 -26 3 -29 20 -25 17 4 20 2 15
-14 -7 -22 -9 -22 35 -9 19 6 46 13 60 15 14 2 33 6 43 10 17 7 22 -2 18 -34
-2 -7 2 -11 6 -8 5 3 15 2 23 -3 12 -7 12 -19 1 -73 -12 -60 -11 -69 7 -109
11 -25 30 -55 43 -66 16 -16 25 -38 30 -82 7 -64 38 -122 74 -138 19 -9 19
-10 -5 -20 -14 -6 -103 -25 -197 -43 l-173 -31 0 -44 c0 -44 0 -44 33 -40 17
2 70 18 117 34 75 26 115 35 210 47 14 2 28 3 33 4 4 1 7 11 8 24 0 12 4 31 9
42 6 15 9 8 9 -27 1 -38 -2 -48 -15 -48 -9 0 -39 -17 -68 -37 -58 -42 -56 -41
-191 -168 -55 -52 -102 -95 -106 -95 -3 0 -19 -12 -35 -27 l-29 -26 30 18 c62
37 139 99 214 175 56 56 153 130 190 146 18 8 52 14 75 14 58 -1 188 -33 230
-58 l35 -21 4 47 c2 26 4 6 3 -44 -2 -102 -15 -132 -68 -160 -39 -20 -200 -35
-210 -20 -8 11 -12 1 -9 -18 1 -5 -9 -6 -23 -4 -17 4 -23 1 -19 -9 3 -7 8 -13
12 -13 3 0 5 -59 3 -130 -2 -79 -7 -128 -13 -125 -5 4 -9 -10 -9 -29 0 -20 4
-36 9 -36 14 0 33 -157 29 -245 -3 -73 -5 -80 -23 -78 -11 1 -36 4 -55 6 -20
1 -41 6 -48 11 -6 4 -30 10 -53 14 -26 5 -46 15 -53 27 -6 11 -14 22 -17 25
-3 3 -9 12 -12 20 -4 8 -5 -10 -3 -40 3 -50 1 -57 -26 -82 -16 -15 -45 -30
-64 -34 -19 -3 -37 -10 -39 -15 -3 -4 -12 -6 -20 -2 -9 3 -15 -1 -15 -11 0 -9
-3 -15 -7 -14 -11 3 -93 -53 -93 -63 0 -5 -7 -5 -17 -2 -11 4 -14 3 -9 -5 4
-7 0 -15 -11 -19 -25 -9 -91 -52 -129 -83 -33 -27 -44 -34 -117 -80 -26 -17
-51 -30 -56 -30 -4 0 -21 -11 -37 -25 -16 -14 -52 -36 -80 -50 -28 -13 -56
-31 -63 -39 -7 -8 -19 -12 -27 -9 -7 3 -17 -2 -20 -11 -8 -20 -71 -57 -88 -50
-8 3 -16 -4 -19 -17 -4 -14 -11 -20 -21 -16 -8 3 -17 -1 -20 -9 -3 -8 -11 -14
-18 -14 -7 0 -22 -10 -33 -22 -11 -13 -36 -32 -55 -42 -19 -11 -38 -24 -41
-29 -20 -30 -364 282 -499 453 -29 36 -59 74 -69 85 -16 19 -120 172 -167 245
-51 81 -174 320 -174 340 0 15 1397 13 1402 -1 4 -11 142 34 272 88 60 25 136
71 136 82 0 3 -393 6 -872 6 -771 0 -873 2 -869 15 2 8 4 35 5 60 2 25 8 58
15 75 7 16 10 40 8 52 -7 37 25 44 202 43 88 0 127 -4 133 -13 5 -7 8 0 8 18
0 17 3 47 6 68 l7 37 -224 -2 -224 -3 4 -95 c2 -52 4 -124 5 -160 1 -36 6 -73
10 -82 7 -16 2 -18 -43 -18 -58 0 -55 -4 -93 120 -43 140 -67 242 -94 395 -27
151 -28 176 -29 450 0 303 5 359 51 589 73 362 225 719 447 1046 146 216 396
480 607 643 72 56 248 177 256 177 3 0 23 11 45 25 264 167 671 312 1037 370
230 37 553 41 792 11z m1805 -185 c47 -29 76 -61 92 -99 30 -72 -8 -168 -90
-227 -35 -25 -52 -30 -99 -30 -48 0 -62 5 -94 31 -64 51 -79 79 -79 143 0 68
31 124 97 171 50 37 125 41 173 11z m-4394 -243 c139 -148 134 -140 103 -169
l-25 -23 -46 49 c-25 28 -78 85 -119 127 -41 42 -74 84 -74 92 0 15 26 35 46
36 6 0 57 -50 115 -112z m4546 -106 l-107 -107 60 -60 c33 -33 60 -63 60 -68
0 -11 -26 -37 -37 -37 -12 0 -173 164 -173 176 0 5 57 64 127 131 l128 122 25
-24 25 -25 -108 -108z m-4653 26 c106 -103 106 -103 106 -151 0 -41 -5 -53
-40 -91 -87 -95 -131 -89 -269 36 -56 50 -101 96 -101 103 0 6 9 20 20 30 17
15 22 16 37 4 15 -11 96 -86 147 -135 42 -40 101 -35 126 11 21 39 5 66 -95
159 l-96 89 22 23 c12 13 26 24 30 24 4 0 55 -46 113 -102z m2687 -91 c-8 -8
-11 -7 -11 4 0 20 13 34 18 19 3 -7 -1 -17 -7 -23z m2264 -33 c20 -31 25 -26
-123 -143 -80 -64 -91 -76 -80 -90 7 -9 32 -39 55 -67 24 -28 43 -55 43 -59 0
-9 -31 -34 -42 -35 -10 0 -158 185 -158 197 0 6 10 17 23 26 12 8 73 55 136
106 63 50 117 91 121 91 4 0 15 -12 25 -26z m-2247 -52 c6 -18 -15 -14 -22 4
-4 10 -1 14 6 12 6 -2 14 -10 16 -16z m-3000 -51 c12 -7 11 -14 -2 -40 -14
-25 -23 -31 -50 -31 -59 0 -101 -71 -76 -130 17 -41 74 -82 124 -87 35 -4 47
-1 74 22 40 34 54 92 26 112 -17 12 -22 10 -45 -18 -23 -29 -27 -30 -47 -18
-12 8 -22 18 -22 23 0 7 47 74 86 125 2 2 29 -17 61 -41 55 -42 58 -47 56 -85
-3 -81 -70 -170 -145 -192 -32 -10 -49 -9 -92 3 -106 31 -171 132 -146 225 12
44 70 117 105 131 27 11 77 12 93 1z m5436 -143 c9 -13 42 -61 72 -108 l55
-85 -22 -17 c-12 -10 -24 -18 -28 -18 -3 0 -30 37 -59 81 l-53 80 -29 -21
c-17 -12 -30 -23 -30 -26 0 -2 21 -35 46 -73 46 -70 48 -83 14 -101 -15 -8
-24 0 -61 58 -24 37 -48 70 -53 73 -11 9 -76 -29 -76 -44 0 -7 22 -46 50 -87
46 -69 48 -75 33 -92 -25 -28 -37 -22 -73 35 -19 28 -51 79 -72 111 -25 38
-36 62 -29 69 18 18 276 186 287 186 6 1 19 -9 28 -21z m-5609 -248 c225 -29
208 -23 188 -65 -16 -34 -18 -35 -63 -29 l-47 6 -31 -56 c-37 -65 -39 -77 -12
-101 11 -10 20 -28 20 -39 -1 -23 -22 -56 -36 -55 -9 0 -196 230 -223 273 -12
20 -12 28 -2 55 8 17 21 31 30 31 9 0 88 -9 176 -20z m3165 -104 c-23 -38 -50
-48 -50 -19 0 9 12 30 27 45 37 38 52 21 23 -26z m2616 25 c57 -35 88 -86 92
-155 3 -52 1 -65 -18 -86 l-22 -25 -24 28 c-19 22 -22 32 -14 47 19 36 12 80
-19 111 -35 35 -75 38 -130 9 -87 -44 -106 -117 -47 -176 36 -36 43 -39 66
-24 12 8 12 14 -3 46 -10 20 -17 38 -15 39 10 8 50 26 53 23 7 -8 65 -128 65
-136 0 -12 -107 -62 -132 -62 -13 0 -41 20 -69 49 -104 108 -86 241 41 308 55
29 132 31 176 4z m-2530 -75 c8 -20 -37 -86 -58 -86 -25 0 -22 18 8 62 28 40
41 47 50 24z m34 -35 c0 -13 -87 -101 -101 -101 -10 0 9 24 66 87 22 23 35 28
35 14z m-150 -191 c0 -6 -34 -11 -77 -12 -69 -1 -73 -2 -33 -8 31 -5 37 -8 20
-10 -24 -3 -24 -3 -2 -7 28 -6 28 -18 0 -37 -20 -14 -15 -15 73 -19 52 -1 -90
-3 -316 -3 -225 -1 -375 2 -333 5 43 4 80 10 84 14 7 7 -16 11 -46 8 -9 -1 -6
4 7 11 12 7 22 18 22 23 0 6 10 13 23 17 17 4 11 6 -22 8 -25 1 -65 5 -90 9
-27 5 104 9 323 10 239 1 367 -2 367 -9z m2864 -122 c26 -67 43 -125 39 -129
-4 -3 -17 -10 -29 -13 -19 -6 -24 3 -55 84 -32 86 -35 91 -59 85 -48 -12 -50
-24 -19 -105 32 -83 31 -100 -5 -100 -21 0 -28 10 -52 73 -15 39 -31 76 -34
80 -4 4 -25 1 -48 -8 -46 -19 -46 -15 2 -135 25 -61 25 -66 9 -78 -10 -7 -24
-11 -32 -10 -12 3 -100 216 -101 245 0 6 24 20 53 31 28 11 93 36 142 55 118
45 118 45 131 46 6 1 32 -54 58 -121z m-6064 -57 c0 -9 -6 -25 -13 -35 -11
-15 -17 -16 -40 -5 -30 14 -31 17 -17 53 8 23 12 24 40 15 17 -7 30 -18 30
-28z m3064 3 c19 -7 19 -8 0 -15 -11 -5 18 -9 71 -10 l90 -2 -85 -8 c-47 -4
-168 -7 -270 -7 -102 0 -223 3 -270 7 l-85 8 80 2 c54 2 72 5 55 10 -21 7 -18
9 25 15 28 4 57 9 65 11 25 7 304 -3 324 -11z m-3354 -44 c0 -35 -3 -40 -23
-40 -57 0 -82 -87 -39 -133 27 -28 83 -47 140 -47 32 0 45 6 61 26 28 35 26
66 -5 103 -24 29 -24 31 -8 56 21 33 37 32 67 -5 53 -63 39 -163 -32 -222 -67
-57 -178 -46 -257 25 -41 38 -47 48 -51 94 -3 28 0 67 7 87 14 44 75 96 112
96 26 0 28 -3 28 -40z m3300 -50 c39 0 51 -3 40 -10 -11 -7 -5 -10 25 -11 39
-1 39 -2 10 -9 -29 -7 -29 -8 10 -10 22 -1 54 -6 70 -10 17 -4 -125 -8 -315
-8 -207 0 -329 4 -305 9 22 4 58 8 80 9 32 1 36 3 20 10 -17 7 -15 9 13 9 17
1 32 5 32 11 0 11 99 18 195 14 39 -2 95 -4 125 -4z m248 -118 c-5 -16 -157
-250 -180 -277 -6 -5 -31 -42 -56 -81 -26 -39 -74 -111 -106 -158 l-60 -87
-18 23 c-15 20 -97 145 -305 464 -98 151 -139 134 327 134 384 0 402 -1 398
-18z m2909 -221 c43 -31 73 -95 73 -155 0 -94 -87 -166 -200 -166 -76 0 -117
18 -150 67 -21 30 -25 48 -25 107 0 59 4 77 24 105 33 47 91 71 172 71 57 0
71 -4 106 -29z m-6526 -181 c95 -12 175 -22 177 -24 2 -2 0 -20 -4 -41 -5 -30
-13 -39 -43 -51 -98 -39 -204 -94 -191 -98 13 -4 181 -26 203 -26 10 0 9 -58
-2 -64 -8 -5 -352 33 -360 40 -2 2 -1 18 3 37 6 32 12 37 126 88 66 30 120 57
120 60 0 4 -49 12 -110 19 l-110 13 0 33 c0 19 4 34 9 34 5 0 87 -9 182 -20z
m3342 -65 c-3 -9 -8 -14 -10 -11 -3 3 -2 9 2 15 9 16 15 13 8 -4z m-13 -39 c0
-8 -6 -16 -12 -19 -10 -3 -10 -7 1 -20 14 -18 2 -24 -15 -7 -6 6 -9 0 -8 -18
1 -15 3 -29 4 -32 1 -3 2 -8 1 -12 0 -5 11 -8 27 -9 24 0 25 -1 7 -8 -20 -9
-74 -71 -87 -100 -11 -26 -9 -118 3 -148 7 -15 23 -52 36 -82 20 -44 22 -59
14 -78 -18 -40 -13 -122 10 -159 12 -20 16 -34 9 -34 -6 0 1 -11 17 -24 24
-20 25 -26 14 -40 -9 -11 -10 -16 -2 -16 7 0 11 -38 11 -120 0 -66 -4 -120 -9
-120 -7 0 -12 -28 -25 -148 -1 -12 -13 -33 -25 -46 -13 -14 -20 -29 -16 -36 3
-6 3 -10 -2 -9 -25 4 -28 -5 -21 -93 4 -51 10 -105 13 -120 5 -20 3 -28 -5
-28 -10 0 -11 -16 -5 -67 9 -82 9 -75 0 -193 -3 -52 -7 -249 -7 -438 0 -191
-4 -342 -9 -342 -5 0 -9 -35 -10 -77 0 -43 -4 -87 -9 -98 -5 -11 -9 556 -9
1303 l-1 1323 48 64 c47 65 62 77 62 51z m-510 -61 c0 -26 9 -45 35 -73 44
-49 55 -107 28 -141 -27 -33 -88 -34 -128 -3 -25 20 -29 29 -26 64 2 30 -1 39
-11 36 -8 -3 -12 -18 -11 -39 l2 -34 -13 30 c-12 27 -14 78 -5 114 7 24 41 54
78 67 50 18 51 18 51 -21z m3803 -12 c3 -5 8 -62 12 -128 l7 -120 -30 -2 -30
-2 -8 87 c-10 93 -16 101 -68 88 -22 -5 -23 -9 -18 -81 l5 -75 -30 0 c-28 0
-31 3 -37 46 -3 26 -6 60 -6 76 l0 28 -80 -6 -80 -7 0 40 0 40 68 2 c54 2 177
11 274 19 9 1 19 -1 21 -5z m-3431 -57 c2 -19 0 -32 -4 -30 -8 5 -12 64 -4 64
2 0 6 -15 8 -34z m-3118 -131 c58 -38 83 -109 67 -193 -28 -145 -262 -180
-348 -52 -18 25 -23 47 -23 92 0 93 47 162 120 174 19 3 39 7 44 8 24 6 116
-14 140 -29z m3123 -57 c-3 -8 -6 -5 -6 6 -1 11 2 17 5 13 3 -3 4 -12 1 -19z
m-362 -3 c68 -2 110 -14 160 -45 33 -20 35 -25 35 -75 0 -64 -25 -95 -75 -95
-40 0 -97 19 -90 30 3 4 -4 6 -15 3 -31 -8 -78 16 -89 46 l-10 26 -7 -23 c-6
-22 -8 -22 -25 -6 -11 9 -19 28 -19 41 0 13 -4 22 -9 18 -16 -9 -17 48 -2 73
12 20 19 23 50 16 20 -4 63 -8 96 -9z m785 -19 c0 -3 -4 -8 -10 -11 -5 -3 -10
-1 -10 4 0 6 5 11 10 11 6 0 10 -2 10 -4z m-1010 -95 c-8 -5 -40 -11 -70 -15
l-55 -5 50 13 c61 16 98 20 75 7z m730 -81 c0 -5 -5 -10 -11 -10 -5 0 -7 5 -4
10 3 6 8 10 11 10 2 0 4 -4 4 -10z m-562 -23 c15 -8 43 -14 62 -16 19 -1 36
-6 38 -11 2 -5 14 -5 30 1 40 15 109 2 127 -24 22 -32 19 -80 -9 -110 l-23
-25 -59 15 c-32 9 -72 17 -89 18 -16 2 -33 4 -37 4 -4 1 -10 10 -13 21 -3 11
-12 20 -20 20 -10 0 -12 -7 -5 -30 5 -18 5 -30 -1 -30 -5 0 -9 5 -9 11 0 6 -6
9 -13 6 -20 -7 -67 36 -67 62 0 11 -4 21 -10 21 -14 0 -12 48 3 65 15 18 60
19 95 2z m3722 -80 l135 -12 3 -29 c2 -16 -1 -33 -6 -38 -5 -5 -49 -5 -113 1
-194 19 -182 20 -190 -14 -4 -17 -9 -60 -12 -97 l-5 -66 138 -87 138 -87 -5
-37 c-3 -20 -6 -37 -7 -38 -5 -7 -377 -75 -382 -70 -4 3 -3 22 0 42 5 27 12
35 29 35 54 0 64 10 76 68 16 81 15 88 -25 111 -29 17 -35 26 -31 44 3 12 11
78 17 147 6 69 13 130 15 136 2 7 20 10 47 7 24 -2 104 -10 178 -16z m-6357
-14 c8 -40 -10 -49 -113 -57 -150 -12 -160 -21 -40 -36 162 -19 164 -20 168
-62 l3 -35 -121 -43 c-66 -23 -118 -45 -116 -48 3 -2 57 1 121 8 63 7 118 11
120 8 3 -3 7 -18 8 -34 l2 -29 -177 -19 c-98 -11 -179 -18 -181 -16 -2 3 -7
28 -10 55 l-6 51 115 44 c78 30 109 46 97 51 -10 3 -63 12 -118 19 -55 7 -103
18 -107 24 -4 6 -8 32 -8 59 0 42 2 47 23 48 18 0 307 34 328 38 4 0 9 -11 12
-26z m2789 -135 c15 -17 16 -24 5 -50 -11 -26 -18 -30 -60 -34 -50 -4 -57 1
-31 21 15 10 13 13 -15 18 -25 5 -31 11 -31 32 0 18 6 25 20 26 33 2 38 4 46
12 11 11 47 -2 66 -25z m-147 -20 c-1 -18 -6 -32 -11 -31 -20 4 -16 63 5 63 5
0 8 -15 6 -32z m402 -145 c-3 -10 -5 -2 -5 17 0 19 2 27 5 18 2 -10 2 -26 0
-35z m-2987 -115 c13 -64 36 -158 45 -189 6 -19 16 -16 -193 -65 -85 -20 -157
-33 -160 -29 -10 10 -61 248 -56 257 3 4 18 8 35 8 21 0 29 -5 29 -17 0 -10 7
-51 17 -91 l17 -74 34 6 c19 3 36 7 38 9 3 2 -2 36 -11 76 -21 103 -21 111 14
111 28 0 29 -2 46 -86 l18 -85 41 7 c23 3 44 11 47 16 4 6 1 36 -7 67 -27 112
-28 129 -8 134 11 3 24 5 30 6 6 0 17 -27 24 -61z m3502 -55 c16 -17 30 -44
34 -69 5 -34 2 -45 -20 -70 -14 -17 -31 -31 -38 -32 -39 -3 -57 -7 -52 -11 3
-3 20 -4 39 -2 20 1 45 -5 60 -15 26 -17 27 -20 20 -82 -4 -36 -13 -72 -21
-79 -8 -8 -14 -21 -14 -28 0 -16 -76 -12 -122 6 -20 8 -33 7 -55 -5 l-28 -15
33 -2 c17 -1 37 -3 42 -4 6 -1 25 -3 44 -4 21 -1 47 -11 65 -27 37 -31 41 -78
13 -134 -18 -36 -36 -41 -97 -26 -16 4 -40 9 -53 12 -13 2 -20 9 -17 14 3 6 1
10 -4 10 -6 0 -11 -4 -11 -10 0 -15 -52 8 -82 38 -18 16 -28 36 -28 54 0 30
25 88 43 99 5 4 1 10 -10 13 -22 7 -43 45 -43 79 0 35 38 87 71 99 22 8 28 15
23 27 -19 45 -16 68 16 104 17 20 40 39 51 42 11 4 24 18 30 32 8 23 13 25 46
20 21 -4 49 -18 65 -34z m341 -17 l32 -13 -25 -11 c-29 -13 -237 -92 -261 -99
-18 -5 -29 31 -29 93 0 29 4 35 33 42 44 13 211 5 250 -12z m306 -37 c67 -10
97 -23 174 -72 53 -34 51 -28 37 -167 -6 -52 -15 -147 -20 -210 -31 -352 -42
-468 -45 -490 -1 -14 -3 -46 -4 -72 -1 -57 -12 -60 -87 -24 -91 44 -182 59
-307 53 -124 -6 -156 -15 -302 -80 -55 -25 -104 -42 -108 -38 -4 5 1 82 12
172 11 90 34 290 51 444 41 377 39 365 58 372 9 3 74 28 144 55 168 66 262 79
397 57z m745 -30 c101 -35 266 -117 266 -132 0 -6 -4 -49 -10 -96 -5 -47 -26
-250 -46 -451 -20 -201 -37 -366 -38 -367 -1 -2 -28 11 -60 27 -98 51 -203 72
-331 67 -128 -5 -178 -15 -278 -56 -39 -16 -76 -27 -80 -24 -4 3 -6 23 -3 46
9 68 15 125 26 257 6 69 13 145 15 170 3 25 12 131 20 235 23 280 16 258 89
293 102 49 141 59 260 61 64 1 95 -5 170 -30z m1198 -59 c-4 -41 -10 -50 -35
-50 -50 0 -87 -89 -52 -123 27 -28 42 -20 84 42 64 94 102 115 165 91 28 -10
56 -57 56 -92 0 -41 -20 -97 -46 -127 -26 -31 -88 -52 -103 -35 -14 16 8 74
28 74 39 0 72 77 44 105 -21 22 -39 9 -83 -61 -45 -72 -62 -84 -119 -84 -85 0
-127 87 -90 185 22 59 44 83 83 94 51 15 71 10 68 -19z m-5998 -150 c21 -66
37 -122 35 -124 -2 -2 -80 -28 -172 -59 l-168 -56 -11 24 c-6 13 -8 30 -5 38
3 8 64 33 136 56 72 24 133 46 136 51 3 4 -6 38 -20 74 -36 95 -33 109 20 115
6 0 28 -53 49 -119z m2893 -42 c-3 -8 -6 -5 -6 6 -1 11 2 17 5 13 3 -3 4 -12
1 -19z m-2818 -155 c7 -14 8 -30 4 -34 -10 -9 -302 -129 -322 -132 -13 -2 -40
58 -30 67 11 9 306 124 320 125 9 1 21 -11 28 -26z m2818 -135 c-2 -24 -4 -5
-4 42 0 47 2 66 4 43 2 -24 2 -62 0 -85z m2673 105 c0 -36 -151 -308 -248
-448 -150 -216 -382 -466 -562 -605 -25 -19 -54 -43 -64 -52 -11 -10 -66 -49
-123 -88 -339 -230 -727 -388 -1128 -459 -336 -59 -749 -54 -1085 15 -242 49
-523 148 -745 262 -89 46 -319 187 -334 205 -9 12 9 27 96 84 101 65 250 157
403 249 36 21 70 42 75 46 6 4 33 25 60 46 59 45 241 160 304 192 109 55 173
72 261 72 131 -1 127 0 135 -49 3 -24 8 -150 10 -281 2 -130 4 -240 5 -245 0
-4 19 -28 43 -54 l42 -46 -30 7 c-27 6 -28 5 -12 -7 12 -10 17 -28 17 -62 0
-67 29 -122 96 -179 107 -93 240 -101 337 -20 37 30 77 95 77 124 0 24 36 117
58 150 9 14 18 34 20 45 4 26 18 273 28 490 6 152 9 174 29 202 12 18 25 30
28 26 4 -3 7 2 7 12 0 12 3 15 9 10 5 -6 3 -57 -5 -120 -19 -150 -17 -167 24
-177 18 -5 30 -13 27 -18 -3 -5 4 -19 15 -30 27 -27 128 -38 300 -32 69 2 215
-1 325 -8 148 -8 230 -8 315 0 90 9 378 19 593 20 51 1 52 3 107 303 9 51 26
235 24 270 0 9 3 17 8 17 13 0 9 54 -4 69 -9 9 -9 12 -1 7 7 -4 14 5 18 25 4
18 16 34 28 39 12 5 111 8 220 8 161 -1 197 -4 197 -15z m360 -192 c47 -24 90
-48 97 -53 9 -7 3 -28 -27 -86 -52 -102 -71 -123 -118 -129 -72 -10 -132 44
-132 117 0 17 11 53 25 80 l25 49 -59 33 -59 33 13 33 14 32 68 -33 c37 -18
106 -53 153 -76z m-2595 73 c37 -40 50 -89 31 -118 -17 -26 -69 -39 -91 -22
-8 6 -21 28 -30 48 -16 41 -8 83 22 106 25 18 41 15 68 -14z m-3334 -69 c17
-36 33 -65 35 -65 3 0 31 14 64 30 33 17 64 30 69 30 9 0 36 -58 30 -64 -8 -8
-322 -156 -325 -154 -7 8 -105 220 -102 222 16 14 53 27 56 20 23 -58 70 -140
83 -142 9 -2 26 5 39 16 l22 18 -29 65 c-27 58 -28 65 -14 76 29 23 42 13 72
-52z m2896 -22 c-3 -10 -5 -4 -5 12 0 17 2 24 5 18 2 -7 2 -21 0 -30z m133 -3
c0 -5 -4 -10 -10 -10 -5 0 -10 5 -10 10 0 6 5 10 10 10 6 0 10 -4 10 -10z
m275 -90 c3 -5 2 -10 -4 -10 -5 0 -13 5 -16 10 -3 6 -2 10 4 10 5 0 13 -4 16
-10z m-408 -62 c-2 -13 -4 -3 -4 22 0 25 2 35 4 23 2 -13 2 -33 0 -45z m113
52 c0 -5 -4 -10 -9 -10 -6 0 -13 5 -16 10 -3 6 1 10 9 10 9 0 16 -4 16 -10z
m254 -297 c-5 -137 -8 -284 -7 -327 4 -103 -9 -147 -52 -185 -53 -46 -62 -37
-12 12 l44 42 7 195 c10 326 19 510 24 510 2 0 1 -111 -4 -247z m2389 209 c34
-21 99 -61 145 -88 45 -27 82 -53 82 -59 0 -5 -8 -20 -18 -33 l-17 -22 -153
91 c-83 49 -152 94 -152 100 0 17 25 49 38 49 7 0 41 -17 75 -38z m-2756 -54
c-3 -8 -6 -5 -6 6 -1 11 2 17 5 13 3 -3 4 -12 1 -19z m2744 -88 c63 -43 127
-90 143 -103 l29 -24 -19 -27 c-19 -26 -19 -26 -124 -21 -58 3 -120 8 -137 11
-18 3 -33 1 -33 -3 1 -4 41 -35 90 -68 49 -33 90 -64 90 -70 -1 -14 -26 -45
-37 -45 -5 0 -57 33 -114 73 -57 39 -121 83 -142 97 -42 28 -44 36 -17 68 19
23 21 24 157 17 l138 -7 -35 24 c-34 23 -140 98 -149 105 -8 6 22 53 34 53 7
0 63 -36 126 -80z m-5207 -67 c19 -26 19 -26 -5 -44 -32 -25 -43 -24 -60 7
-12 24 -12 28 10 45 30 24 32 24 55 -8z m43 -65 c28 -26 28 -39 3 -129 -19
-70 -16 -108 10 -124 6 -4 36 14 66 40 l55 47 25 -23 c13 -12 24 -26 24 -30 0
-5 -44 -44 -97 -88 -54 -44 -114 -93 -133 -110 -19 -17 -40 -31 -46 -31 -26 0
-154 170 -154 206 0 63 59 112 121 100 44 -8 55 -6 51 6 -4 13 39 158 46 158
3 0 16 -10 29 -22z m4957 -192 c47 -90 86 -170 86 -178 0 -8 -11 -25 -24 -37
l-24 -22 -173 61 c-96 34 -177 64 -181 68 -3 4 4 20 16 35 l23 28 41 -16 42
-17 24 28 c13 16 33 40 45 53 25 28 26 41 6 67 -8 10 -15 25 -15 32 0 15 31
61 42 62 4 0 45 -74 92 -164z m396 114 c15 -29 4 -56 -31 -77 -21 -13 -29 -25
-29 -45 0 -32 -24 -38 -39 -10 -15 27 -4 55 30 77 16 12 29 29 29 41 0 38 23
46 40 14z m-2933 -132 c-3 -8 -6 -5 -6 6 -1 11 2 17 5 13 3 -3 4 -12 1 -19z
m-2110 -137 c26 -21 63 -54 81 -73 l33 -35 -122 -126 c-67 -70 -126 -127 -133
-127 -14 0 -130 117 -145 147 -49 96 69 253 191 253 39 0 54 -6 95 -39z m4376
-10 l28 -18 -23 -27 c-21 -24 -25 -26 -55 -14 -26 10 -37 9 -56 -1 -33 -18
-51 -54 -43 -85 8 -34 32 -33 106 4 70 35 117 38 153 10 31 -25 44 -78 27
-111 -46 -89 -141 -133 -199 -93 l-22 16 22 24 c18 20 29 23 55 18 27 -5 38
-1 58 20 29 29 34 64 10 73 -10 3 -43 -7 -79 -25 -83 -43 -135 -43 -177 -2
-28 28 -30 35 -26 81 11 107 140 184 221 130z m-2418 -139 c-3 -3 -11 0 -18 7
-9 10 -8 11 6 5 10 -3 15 -9 12 -12z m175 -21 l115 -8 -100 -1 c-62 0 -115 5
-140 14 -22 7 -29 11 -15 8 14 -3 77 -9 140 -13z m175 9 c-11 -5 -29 -8 -40
-8 -16 0 -15 2 5 8 34 11 60 11 35 0z m-129 -106 c4 -17 2 -29 -7 -35 -24 -15
-29 -10 -29 26 0 42 26 49 36 9z m-1352 -456 c26 -4 51 -10 54 -13 4 -4 -10
-22 -30 -40 -35 -32 -36 -36 -27 -70 6 -20 9 -50 7 -66 l-3 -30 -40 30 c-49
37 -62 38 -124 6 -27 -13 -51 -22 -53 -19 -3 2 1 28 9 56 l13 52 -47 48 -47
48 61 0 c67 0 74 5 93 65 27 84 30 85 59 9 l26 -69 49 -7z m2760 56 c24 -60
30 -64 83 -59 24 2 43 1 43 -3 0 -3 -20 -27 -45 -52 l-46 -46 20 -44 c11 -24
18 -48 15 -52 -3 -4 -29 4 -58 19 l-54 26 -47 -27 c-27 -14 -50 -24 -52 -22
-3 2 3 25 11 50 23 66 21 73 -29 108 -24 17 -42 35 -39 40 3 4 29 8 58 8 l54
0 23 55 c13 30 28 53 34 52 5 -2 18 -26 29 -53z m-776 -177 c16 -15 22 -32 22
-63 0 -24 -4 -46 -10 -49 -16 -10 -12 -23 10 -30 45 -14 66 -110 32 -151 -22
-28 -74 -54 -107 -54 -34 0 -80 24 -99 52 -21 29 -20 87 0 116 15 22 14 24
-10 43 -52 41 -24 137 47 158 42 12 87 4 115 -22z m-1154 5 c3 -5 -1 -40 -9
-78 -7 -38 -21 -118 -31 -177 l-17 -108 -31 7 c-17 3 -33 8 -35 10 -4 4 26
191 36 228 4 16 1 18 -18 12 -74 -21 -76 -20 -71 13 3 23 11 33 36 41 17 5 45
21 61 35 30 24 69 33 79 17z m375 -57 c41 -35 55 -84 48 -165 -11 -129 -58
-186 -147 -177 -48 5 -90 41 -90 78 0 27 55 27 70 -1 12 -23 52 -27 69 -7 6 8
14 29 17 47 7 30 6 32 -14 21 -44 -24 -105 -4 -128 40 -8 16 -14 49 -14 75 0
39 5 51 34 80 29 29 41 34 79 34 34 0 53 -6 76 -25z m380 9 c40 -28 61 -90 61
-180 0 -68 -4 -86 -23 -115 -41 -61 -103 -75 -163 -38 -19 11 -34 27 -34 35 0
8 0 17 0 22 0 4 11 10 25 13 17 5 29 1 41 -12 9 -10 25 -19 35 -19 22 0 49 37
49 68 0 19 -4 23 -17 16 -10 -4 -34 -9 -53 -11 -97 -11 -145 152 -63 217 32
25 108 27 142 4z"/>
<path d="M3842 7032 c-30 -27 -48 -104 -33 -151 15 -52 44 -76 92 -76 61 0 92
37 97 118 4 57 1 66 -23 95 -22 27 -34 32 -69 32 -27 0 -51 -7 -64 -18z"/>
<path d="M4217 7003 c-4 -3 -7 -23 -7 -43 0 -35 2 -38 38 -44 66 -11 91 -7
102 14 18 34 3 57 -45 69 -50 13 -79 14 -88 4z"/>
<path d="M4735 6837 c-6 -7 -23 -28 -38 -48 l-27 -36 39 -15 c22 -9 42 -13 45
-10 9 8 7 122 -1 122 -5 -1 -13 -6 -18 -13z"/>
<path d="M2138 6669 c-20 -10 -40 -23 -43 -30 -7 -10 24 -79 35 -79 3 0 28 13
55 28 52 28 68 59 45 88 -16 18 -46 16 -92 -7z"/>
<path d="M1850 6439 c0 -11 21 -102 25 -107 4 -5 75 40 75 47 0 4 -11 14 -25
21 -14 7 -25 17 -25 22 0 4 -7 8 -15 8 -8 0 -15 5 -15 10 0 6 -4 10 -10 10 -5
0 -10 -5 -10 -11z"/>
<path d="M3790 6349 c0 -5 5 -7 10 -4 6 3 10 8 10 11 0 2 -4 4 -10 4 -5 0 -10
-5 -10 -11z"/>
<path d="M3810 6310 c0 -19 3 -21 12 -12 9 9 9 15 0 24 -9 9 -12 7 -12 -12z"/>
<path d="M3763 6308 c-13 -6 -23 -18 -23 -27 -1 -20 -30 -56 -52 -64 -22 -8
-24 -37 -2 -37 8 0 13 4 9 9 -3 5 3 12 14 16 10 3 35 27 55 52 48 62 48 75 -1
51z"/>
<path d="M3834 6160 c0 -28 3 -50 8 -50 4 0 8 23 8 50 0 28 -3 50 -7 50 -5 0
-8 -23 -9 -50z"/>
<path d="M3681 6131 c-7 -12 -7 -22 -2 -26 5 -3 13 4 16 16 9 28 -1 36 -14 10z"/>
<path d="M3640 6130 c0 -5 5 -10 10 -10 6 0 10 5 10 10 0 6 -4 10 -10 10 -5 0
-10 -4 -10 -10z"/>
<path d="M3975 6130 c3 -5 8 -10 11 -10 2 0 4 5 4 10 0 6 -5 10 -11 10 -5 0
-7 -4 -4 -10z"/>
<path d="M3357 6086 c-3 -8 -2 -18 3 -21 13 -8 24 15 12 27 -6 6 -11 4 -15 -6z"/>
<path d="M3467 6052 c-22 -25 -21 -44 3 -60 18 -11 20 -10 20 8 0 11 -5 20
-11 20 -5 0 -7 5 -4 10 10 15 23 12 29 -7 2 -10 4 -5 3 11 -2 36 -18 43 -40
18z"/>
<path d="M3650 6040 c0 -5 7 -10 16 -10 8 0 12 5 9 10 -3 6 -10 10 -16 10 -5
0 -9 -4 -9 -10z"/>
<path d="M3329 6017 c-28 -22 -40 -54 -29 -81 5 -14 14 -26 19 -26 10 0 27 40
36 88 7 34 0 39 -26 19z"/>
<path d="M3416 5872 c-4 -13 -5 -26 -2 -29 10 -11 18 4 14 29 l-4 23 -8 -23z"/>
<path d="M3846 5811 c-4 -7 -5 -15 -2 -18 9 -9 19 4 14 18 -4 11 -6 11 -12 0z"/>
<path d="M3460 5785 c0 -25 14 -34 24 -16 8 12 -3 41 -15 41 -5 0 -9 -11 -9
-25z"/>
<path d="M3123 5610 c0 -25 2 -35 4 -22 2 12 2 32 0 45 -2 12 -4 2 -4 -23z"/>
<path d="M3313 5535 c14 -30 27 -33 27 -6 0 10 -7 22 -16 25 -23 9 -23 8 -11
-19z"/>
<path d="M3851 5534 c0 -11 3 -14 6 -6 3 7 2 16 -1 19 -3 4 -6 -2 -5 -13z"/>
<path d="M3707 5463 c-12 -11 -8 -23 8 -23 8 0 15 7 15 15 0 16 -12 20 -23 8z"/>
<path d="M3890 5410 c-13 -9 -13 -10 0 -11 8 0 31 -2 50 -4 19 -1 27 -1 18 2
-10 2 -18 9 -18 14 0 12 -31 11 -50 -1z"/>
<path d="M3650 5390 c0 -5 5 -10 10 -10 6 0 10 5 10 10 0 6 -4 10 -10 10 -5 0
-10 -4 -10 -10z"/>
<path d="M3883 5364 c-21 -15 -21 -16 -2 -35 25 -25 30 -24 56 16 l22 35 -27
-1 c-15 0 -37 -7 -49 -15z"/>
<path d="M3808 5298 c-10 -10 -14 -18 -9 -18 10 0 36 29 30 34 -2 1 -12 -6
-21 -16z"/>
<path d="M3700 5269 c0 -5 9 -9 20 -9 11 0 20 2 20 4 0 2 -9 6 -20 9 -11 3
-20 1 -20 -4z"/>
<path d="M3200 5255 c0 -8 5 -15 10 -15 6 0 10 7 10 15 0 8 -4 15 -10 15 -5 0
-10 -7 -10 -15z"/>
<path d="M3430 5231 c0 -5 7 -14 15 -21 18 -15 42 1 31 19 -8 13 -46 15 -46 2z"/>
<path d="M3710 5160 c19 -13 30 -13 30 0 0 6 -10 10 -22 10 -19 0 -20 -2 -8
-10z"/>
<path d="M3100 4460 c-74 -37 -143 -70 -152 -73 -20 -7 -24 -47 -7 -64 8 -8
21 -6 47 7 164 80 204 99 230 105 29 6 42 32 42 81 0 21 -14 16 -160 -56z"/>
<path d="M4284 4499 c-3 -5 -2 -23 1 -40 6 -25 18 -36 68 -60 34 -17 80 -34
102 -37 l40 -8 5 -148 c5 -143 6 -149 28 -157 22 -8 22 -8 23 94 0 56 1 140 2
185 1 46 0 87 -3 91 -3 4 -21 12 -40 18 -181 59 -221 70 -226 62z"/>
<path d="M1102 4285 c1 -52 6 -95 10 -95 4 0 8 7 8 15 0 8 7 15 15 15 8 0 15
9 15 20 0 14 6 20 18 18 9 -2 16 2 15 9 -4 16 37 23 199 31 118 6 138 5 141
-8 2 -8 7 4 11 27 4 23 5 47 1 53 -4 6 -83 10 -221 10 l-214 0 2 -95z"/>
<path d="M1741 4362 c-5 -10 -6 -32 -1 -52 4 -19 8 -30 9 -25 1 6 4 6 9 -1 8
-12 85 -6 77 6 -3 5 -14 6 -25 3 -27 -7 -26 14 1 22 11 4 102 5 202 4 l182 -4
0 30 0 30 -222 2 c-203 2 -223 1 -232 -15z"/>
<path d="M2391 4371 c-10 -6 -12 -18 -6 -42 4 -19 7 -52 7 -74 0 -38 0 -39 11
-15 7 14 21 26 32 28 29 4 214 15 258 16 37 1 48 10 25 19 -7 3 -1 6 15 6 33
1 43 -2 40 -11 -2 -5 1 -8 6 -8 12 0 21 26 21 61 l0 29 -197 0 c-109 0 -204
-4 -212 -9z"/>
<path d="M4793 4362 c-3 -7 -2 -27 1 -45 5 -27 7 -125 4 -177 -4 -53 3 -123
11 -111 5 7 13 11 19 7 16 -9 22 20 22 103 0 106 6 111 141 116 57 3 141 7
185 11 l82 6 5 41 c3 23 1 47 -4 52 -16 16 -460 13 -466 -3z"/>
<path d="M5434 4371 c-6 -6 -5 -47 2 -65 3 -9 12 -16 20 -16 10 0 13 -8 9 -27
l-6 -28 18 24 c10 13 18 31 18 40 0 14 24 16 188 18 103 0 194 4 202 7 21 8
19 46 -2 47 -47 4 -445 3 -449 0z"/>
<path d="M6088 4367 c-15 -5 -19 -13 -14 -30 4 -12 8 -27 10 -34 4 -20 16 -28
16 -11 0 23 43 28 236 28 l174 0 0 25 c0 20 -5 25 -27 27 -73 6 -376 2 -395
-5z"/>
<path d="M2745 4290 c3 -5 8 -10 11 -10 2 0 4 5 4 10 0 6 -5 10 -11 10 -5 0
-7 -4 -4 -10z"/>
<path d="M1106 4095 c4 -8 8 -15 10 -15 2 0 4 7 4 15 0 8 -4 15 -10 15 -5 0
-7 -7 -4 -15z"/>
<path d="M2392 4080 c0 -14 2 -19 5 -12 2 6 2 18 0 25 -3 6 -5 1 -5 -13z"/>
<path d="M4008 3793 c7 -3 16 -2 19 1 4 3 -2 6 -13 5 -11 0 -14 -3 -6 -6z"/>
<path d="M4797 3713 c-3 -5 -5 -19 -5 -33 0 -26 2 -26 147 -48 161 -24 340
-39 329 -27 -4 4 -46 11 -94 16 -48 4 -91 12 -97 18 -8 8 -3 11 16 11 15 0 27
-4 27 -10 0 -5 7 -10 16 -10 8 0 12 5 9 10 -4 6 16 10 53 10 56 0 60 2 66 27
5 17 3 29 -6 34 -16 11 -455 12 -461 2z m160 -59 c-3 -3 -12 -4 -19 -1 -8 3
-5 6 6 6 11 1 17 -2 13 -5z"/>
<path d="M5427 3713 c-4 -3 -7 -18 -7 -33 0 -31 28 -72 36 -52 8 17 21 15 21
-3 0 -9 -10 -15 -23 -15 -13 0 -26 -4 -29 -10 -4 -7 77 -10 236 -10 133 0 240
3 236 6 -3 4 -68 6 -144 6 -120 0 -314 13 -241 17 28 1 51 21 24 21 -8 0 -17
4 -20 8 -3 5 78 8 180 8 170 -1 187 1 196 17 24 45 12 47 -230 47 -126 0 -232
-3 -235 -7z"/>
<path d="M6077 3714 c-14 -14 -7 -62 13 -85 15 -19 22 -21 28 -11 5 7 13 12
18 11 21 -4 34 2 32 14 -2 9 38 13 167 15 172 3 188 7 182 42 -2 13 -35 15
-218 18 -118 1 -218 -1 -222 -4z"/>
<path d="M1097 3618 c3 -51 7 -95 9 -97 2 -2 8 8 13 23 6 14 18 26 27 26 10 0
26 8 37 18 17 15 41 17 183 17 121 0 164 3 164 12 0 7 -8 17 -17 23 -16 10
-16 11 -1 6 17 -5 28 12 28 45 0 18 -10 19 -225 19 l-225 0 7 -92z m98 32 c3
-5 -3 -10 -15 -10 -12 0 -18 5 -15 10 3 6 10 10 15 10 5 0 12 -4 15 -10z m233
-7 c-38 -2 -98 -2 -135 0 -38 2 -7 3 67 3 74 0 105 -1 68 -3z"/>
<path d="M1736 3694 c-7 -18 3 -64 13 -64 4 0 12 -14 18 -30 12 -31 28 -32 62
-6 7 6 34 11 60 12 77 3 82 4 76 13 -3 5 7 12 22 14 16 2 1 5 -31 6 -94 2 -56
14 51 16 141 2 173 -3 174 -29 1 -15 3 -13 9 9 4 17 8 40 9 53 l1 22 -229 0
c-199 0 -230 -2 -235 -16z"/>
<path d="M2380 3678 c1 -33 30 -87 30 -57 1 8 6 2 13 -13 11 -27 13 -27 40
-14 19 11 65 15 150 17 78 1 125 5 130 13 5 8 9 8 15 0 4 -6 14 -11 23 -11 12
0 16 12 18 49 l1 48 -210 0 -210 0 0 -32z m259 -32 c-2 -2 -26 -6 -53 -9 -30
-3 -43 -1 -35 4 13 8 97 13 88 5z m124 -3 c-7 -2 -19 -2 -25 0 -7 3 -2 5 12 5
14 0 19 -2 13 -5z"/>
<path d="M2063 3633 c9 -2 25 -2 35 0 9 3 1 5 -18 5 -19 0 -27 -2 -17 -5z"/>
<path d="M2993 3625 c-20 -5 -33 -16 -33 -26 0 -14 4 -15 33 -5 18 6 34 14 36
19 6 17 -6 21 -36 12z"/>
<path d="M3060 3630 c-12 -8 -9 -10 13 -10 16 0 26 4 22 10 -8 12 -16 12 -35
0z"/>
<path d="M6069 3589 c-8 -5 62 -8 166 -8 99 0 176 2 170 4 -24 8 -324 12 -336
4z"/>
<path d="M6420 3597 c8 -8 106 -19 98 -11 -4 4 -29 9 -55 12 -27 2 -46 2 -43
-1z"/>
<path d="M1102 3440 c0 -19 2 -27 5 -17 2 9 2 25 0 35 -3 9 -5 1 -5 -18z"/>
<path d="M1735 3031 c-3 -10 1 -38 10 -62 8 -24 15 -55 15 -69 0 -18 3 -21 9
-12 4 8 12 13 17 13 5 -1 9 4 9 10 0 11 126 59 157 59 10 0 18 5 18 10 0 6 7
10 15 10 8 0 15 -6 15 -12 0 -10 2 -10 8 -1 5 8 41 13 97 15 90 3 90 3 93 31
l3 27 -230 0 c-216 0 -230 -1 -236 -19z"/>
<path d="M2380 3020 c0 -18 8 -37 20 -47 11 -10 20 -23 20 -30 0 -18 10 -16
25 3 14 19 100 23 253 10 l102 -8 0 51 0 51 -210 0 -210 0 0 -30z"/>
<path d="M2445 2500 c-13 -6 -15 -9 -5 -9 8 0 22 4 30 9 18 12 2 12 -25 0z"/>
<path d="M2345 2460 c-22 -11 -29 -17 -16 -14 38 10 88 33 71 33 -8 0 -33 -8
-55 -19z"/>
<path d="M3320 2441 c0 -5 5 -13 10 -16 6 -3 10 -2 10 4 0 5 -4 13 -10 16 -5
3 -10 2 -10 -4z"/>
<path d="M2221 2419 c-18 -6 -31 -12 -29 -14 5 -5 78 14 78 20 0 6 -8 5 -49
-6z"/>
<path d="M3336 2395 c-8 -23 -8 -35 3 -35 13 0 20 25 11 39 -5 10 -9 8 -14 -4z"/>
<path d="M2130 2390 c-20 -6 -21 -8 -5 -8 11 0 29 3 40 8 25 11 -1 11 -35 0z"/>
<path d="M2055 2372 c-6 -5 -45 -16 -88 -26 -43 -10 -76 -20 -74 -22 5 -6 178
35 197 47 12 7 11 8 -5 9 -12 0 -25 -4 -30 -8z"/>
<path d="M1790 2300 c-74 -24 -51 -25 30 -1 36 11 56 19 45 19 -11 0 -45 -8
-75 -18z"/>
<path d="M1660 2270 c-20 -6 -21 -8 -5 -8 11 0 31 4 45 8 20 6 21 8 5 8 -11 0
-31 -4 -45 -8z"/>
<path d="M1608 2253 c7 -3 16 -2 19 1 4 3 -2 6 -13 5 -11 0 -14 -3 -6 -6z"/>
<path d="M1538 2233 c6 -2 18 -2 25 0 6 3 1 5 -13 5 -14 0 -19 -2 -12 -5z"/>
<path d="M1462 2220 c-18 -4 -36 -11 -40 -15 -8 -8 52 3 83 16 25 10 1 10 -43
-1z"/>
<path d="M1345 2190 l-20 -9 20 1 c11 0 31 4 45 8 l25 8 -25 0 c-14 0 -34 -3
-45 -8z"/>
<path d="M3020 2069 c0 -5 5 -7 10 -4 6 3 10 8 10 11 0 2 -4 4 -10 4 -5 0 -10
-5 -10 -11z"/>
<path d="M5781 6267 c-40 -20 -83 -81 -84 -120 -2 -66 54 -115 114 -102 30 7
94 71 108 109 14 34 2 74 -31 101 -32 27 -70 32 -107 12z"/>
<path d="M810 5326 c0 -3 11 -19 25 -34 14 -16 31 -37 39 -47 12 -16 14 -14
35 20 12 21 18 41 14 45 -10 10 -113 24 -113 16z"/>
<path d="M3652 4552 c-36 -19 -54 -35 -59 -52 -3 -14 -13 -35 -21 -47 -13 -20
-12 -26 1 -46 8 -12 18 -37 21 -55 6 -24 14 -33 34 -38 15 -3 39 -10 54 -16
22 -8 38 -6 82 13 46 19 56 27 62 53 4 17 13 40 20 51 12 18 11 25 -6 53 -11
18 -20 39 -20 47 0 9 -12 20 -27 25 -16 6 -40 17 -55 25 -31 18 -22 19 -86
-13z m82 -12 c-1 -8 -3 -21 -5 -29 -6 -22 19 -24 26 -2 8 25 28 27 46 5 12
-15 11 -19 -9 -32 -31 -21 -27 -32 11 -30 26 3 32 -1 32 -17 0 -15 -7 -20 -27
-20 -38 0 -46 -14 -20 -34 15 -11 21 -23 16 -34 -9 -23 -31 -21 -39 3 -10 30
-38 26 -33 -5 6 -31 -15 -53 -36 -36 -7 6 -11 22 -8 36 5 30 -17 35 -25 5 -6
-24 -41 -27 -50 -3 -4 11 1 22 15 31 28 19 28 34 0 32 -40 -4 -48 0 -48 20 0
21 7 23 50 21 l25 -2 -24 21 c-13 11 -21 26 -17 35 7 19 35 19 42 0 4 -8 13
-15 21 -15 11 0 13 7 9 25 -4 14 -4 30 0 36 9 15 49 6 48 -11z"/>
<path d="M3410 4560 c0 -5 5 -10 10 -10 6 0 10 5 10 10 0 6 -4 10 -10 10 -5 0
-10 -4 -10 -10z"/>
<path d="M3500 4560 c0 -5 5 -10 11 -10 5 0 7 5 4 10 -3 6 -8 10 -11 10 -2 0
-4 -4 -4 -10z"/>
<path d="M3930 4559 c0 -5 5 -7 10 -4 6 3 10 8 10 11 0 2 -4 4 -10 4 -5 0 -10
-5 -10 -11z"/>
<path d="M4010 4560 c0 -5 5 -10 10 -10 6 0 10 5 10 10 0 6 -4 10 -10 10 -5 0
-10 -4 -10 -10z"/>
<path d="M3937 4520 c-3 -11 -1 -20 4 -20 5 0 9 9 9 20 0 11 -2 20 -4 20 -2 0
-6 -9 -9 -20z"/>
<path d="M3465 4510 c26 -11 35 -12 35 -2 0 4 -12 8 -27 9 -24 1 -25 1 -8 -7z"/>
<path d="M3700 4220 c0 -5 5 -10 10 -10 6 0 10 5 10 10 0 6 -4 10 -10 10 -5 0
-10 -4 -10 -10z"/>
<path d="M3658 4193 c6 -2 18 -2 25 0 6 3 1 5 -13 5 -14 0 -19 -2 -12 -5z"/>
<path d="M3720 4196 c0 -2 9 -6 20 -9 11 -3 20 -1 20 4 0 5 -9 9 -20 9 -11 0
-20 -2 -20 -4z"/>
<path d="M3730 4140 c0 -5 5 -10 11 -10 5 0 7 5 4 10 -3 6 -8 10 -11 10 -2 0
-4 -4 -4 -10z"/>
<path d="M6879 4351 c-74 -24 -108 -71 -90 -124 24 -66 73 -88 151 -67 60 16
90 49 90 99 0 74 -71 118 -151 92z"/>
<path d="M395 3799 c-52 -15 -81 -90 -55 -140 23 -43 130 -65 183 -38 84 43
72 155 -19 178 -49 13 -67 13 -109 0z"/>
<path d="M3330 3630 c-9 -6 -10 -10 -3 -10 6 0 15 5 18 10 8 12 4 12 -15 0z"/>
<path d="M3350 3479 c0 -5 5 -7 10 -4 6 3 10 8 10 11 0 2 -4 4 -10 4 -5 0 -10
-5 -10 -11z"/>
<path d="M3438 3433 c7 -3 16 -2 19 1 4 3 -2 6 -13 5 -11 0 -14 -3 -6 -6z"/>
<path d="M6866 3079 c-11 -57 -11 -56 54 -46 33 5 60 13 60 16 -1 7 -88 61
-99 61 -5 0 -11 -14 -15 -31z"/>
<path d="M4005 2644 c-23 -10 -25 -13 -10 -13 21 -1 53 15 45 22 -3 2 -18 -2
-35 -9z"/>
<path d="M4100 2645 c7 -8 20 -14 29 -14 13 1 13 2 -1 6 -10 2 -18 9 -18 14 0
5 -5 9 -11 9 -8 0 -8 -5 1 -15z"/>
<path d="M4677 2893 c-2 -5 -5 -38 -6 -75 -2 -56 1 -68 13 -68 13 0 16 14 16
75 0 65 -9 92 -23 68z"/>
<path d="M4568 2878 c-38 -32 -25 -68 24 -68 17 0 28 -5 28 -14 0 -18 -30 -30
-44 -16 -17 17 -36 11 -36 -10 0 -21 6 -23 55 -20 40 3 57 18 53 49 -2 20 -10
27 -32 31 -16 3 -31 11 -34 19 -4 11 3 12 32 7 37 -7 45 1 24 22 -16 16 -50
15 -70 0z"/>
<path d="M4736 2868 c-22 -31 -20 -60 5 -92 16 -20 29 -26 59 -26 33 0 39 4
51 31 11 28 10 36 -7 68 -16 30 -25 37 -56 39 -28 2 -40 -2 -52 -20z m79 -18
c24 -27 13 -70 -18 -70 -13 0 -28 5 -35 12 -18 18 -15 55 6 67 24 14 26 14 47
-9z"/>
<path d="M4497 2863 c-4 -3 -7 -37 -7 -75 0 -51 3 -69 13 -66 8 3 13 30 15 76
3 66 -3 83 -21 65z"/>
<path d="M4885 2859 c-11 -28 -1 -132 13 -137 7 -2 12 7 13 25 0 26 2 25 19
-14 28 -63 40 -54 40 32 0 43 -4 75 -10 75 -5 0 -10 -9 -10 -20 0 -11 -4 -20
-10 -20 -5 0 -10 6 -10 14 0 8 -9 24 -19 37 -17 21 -20 22 -26 8z"/>
<path d="M4463 2848 c-6 -7 -16 -31 -22 -53 -22 -71 -23 -72 -35 -31 -13 46
-36 60 -36 23 0 -27 18 -87 31 -102 16 -17 39 19 60 94 21 72 21 93 2 69z"/>
<path d="M4770 2680 c0 -14 15 -19 29 -11 9 6 7 10 -8 14 -12 3 -21 1 -21 -3z"/>
<path d="M4520 2660 c-13 -8 -13 -10 2 -10 9 0 20 5 23 10 8 13 -5 13 -25 0z"/>
<path d="M4830 2666 c0 -9 30 -14 35 -6 4 6 -3 10 -14 10 -12 0 -21 -2 -21 -4z"/>
<path d="M4900 2650 c-13 -8 -12 -10 3 -10 9 0 17 5 17 10 0 12 -1 12 -20 0z"/>
<path d="M4610 2625 c0 -7 7 -12 15 -11 24 4 27 13 5 19 -13 3 -20 0 -20 -8z"/>
<path d="M4940 2629 c0 -5 5 -7 10 -4 6 3 10 8 10 11 0 2 -4 4 -10 4 -5 0 -10
-5 -10 -11z"/>
<path d="M4792 2618 c3 -7 13 -15 23 -17 17 -3 17 -2 3 13 -20 19 -31 21 -26
4z"/>
<path d="M4970 2616 c0 -2 7 -6 15 -10 8 -3 15 -1 15 4 0 6 -7 10 -15 10 -8 0
-15 -2 -15 -4z"/>
<path d="M4656 2575 c4 -8 10 -12 15 -9 14 8 10 24 -6 24 -9 0 -12 -6 -9 -15z"/>
<path d="M4750 2570 c0 -5 5 -10 10 -10 6 0 10 5 10 10 0 6 -4 10 -10 10 -5 0
-10 -4 -10 -10z"/>
<path d="M4985 2550 c-3 -5 -1 -10 4 -10 6 0 11 5 11 10 0 6 -2 10 -4 10 -3 0
-8 -4 -11 -10z"/>
<path d="M4405 2520 c-8 -13 5 -13 25 0 13 8 13 10 -2 10 -9 0 -20 -4 -23 -10z"/>
<path d="M4650 2520 c0 -5 5 -10 11 -10 5 0 7 5 4 10 -3 6 -8 10 -11 10 -2 0
-4 -4 -4 -10z"/>
<path d="M4680 2520 c0 -5 5 -10 10 -10 6 0 10 5 10 10 0 6 -4 10 -10 10 -5 0
-10 -4 -10 -10z"/>
<path d="M4717 2523 c-4 -3 -7 -11 -7 -17 0 -6 5 -5 12 2 6 6 9 14 7 17 -3 3
-9 2 -12 -2z"/>
<path d="M4930 2520 c0 -5 5 -10 10 -10 6 0 10 5 10 10 0 6 -4 10 -10 10 -5 0
-10 -4 -10 -10z"/>
<path d="M4530 2509 c0 -6 -8 -9 -17 -8 -24 4 -63 -10 -63 -22 0 -6 9 -4 21 4
11 8 29 13 39 10 10 -3 26 -1 35 5 16 8 16 10 1 15 -9 4 -16 2 -16 -4z"/>
<path d="M4750 2462 c0 -4 9 -8 20 -9 11 -1 18 2 15 8 -7 11 -35 12 -35 1z"/>
<path d="M4800 2451 c0 -6 5 -13 10 -16 6 -3 10 1 10 9 0 9 -4 16 -10 16 -5 0
-10 -4 -10 -9z"/>
<path d="M4466 2442 c-3 -5 1 -9 9 -9 8 0 15 4 15 9 0 4 -4 8 -9 8 -6 0 -12
-4 -15 -8z"/>
<path d="M4330 2430 c-13 -8 -12 -10 3 -10 9 0 17 5 17 10 0 12 -1 12 -20 0z"/>
<path d="M4436 2425 c-3 -8 -1 -15 4 -15 6 0 10 7 10 15 0 8 -2 15 -4 15 -2 0
-6 -7 -10 -15z"/>
<path d="M4371 2399 c-13 -5 -22 -11 -20 -14 8 -7 49 7 49 16 0 5 -1 9 -2 8
-2 0 -14 -5 -27 -10z"/>
<path d="M4945 2401 c-3 -5 -1 -12 5 -16 5 -3 10 1 10 9 0 18 -6 21 -15 7z"/>
<path d="M4840 2380 c8 -5 20 -10 25 -10 6 0 3 5 -5 10 -8 5 -19 10 -25 10 -5
0 -3 -5 5 -10z"/>
<path d="M4397 2363 c-4 -3 -7 -11 -7 -17 0 -6 5 -5 12 2 6 6 9 14 7 17 -3 3
-9 2 -12 -2z"/>
<path d="M4650 2359 c0 -5 5 -7 10 -4 6 3 10 8 10 11 0 2 -4 4 -10 4 -5 0 -10
-5 -10 -11z"/>
<path d="M4705 2350 c-2 -3 5 -6 15 -7 11 -1 22 2 24 5 3 4 -4 8 -15 8 -11 0
-22 -3 -24 -6z"/>
<path d="M4500 2340 c0 -5 5 -10 11 -10 5 0 7 5 4 10 -3 6 -8 10 -11 10 -2 0
-4 -4 -4 -10z"/>
<path d="M4578 2303 c-10 -2 -18 -8 -18 -13 0 -13 35 -8 49 7 13 14 5 16 -31
6z"/>
<path d="M4650 2299 c0 -5 5 -7 10 -4 6 3 10 8 10 11 0 2 -4 4 -10 4 -5 0 -10
-5 -10 -11z"/>
<path d="M4895 2300 c-3 -5 -1 -10 4 -10 6 0 11 5 11 10 0 6 -2 10 -4 10 -3 0
-8 -4 -11 -10z"/>
<path d="M4521 2284 c0 -11 3 -14 6 -6 3 7 2 16 -1 19 -3 4 -6 -2 -5 -13z"/>
<path d="M4710 2292 c0 -5 7 -9 15 -9 8 0 15 4 15 9 0 4 -7 8 -15 8 -8 0 -15
-4 -15 -8z"/>
<path d="M4406 2255 c4 -8 7 -15 9 -15 2 0 5 7 9 15 3 9 0 15 -9 15 -9 0 -12
-6 -9 -15z"/>
<path d="M4269 2233 c-13 -17 -13 -17 6 -3 11 8 22 16 24 17 2 2 0 3 -6 3 -6
0 -17 -8 -24 -17z"/>
<path d="M4375 2240 c-3 -5 -1 -10 4 -10 6 0 11 5 11 10 0 6 -2 10 -4 10 -3 0
-8 -4 -11 -10z"/>
<path d="M4688 2243 c7 -3 16 -2 19 1 4 3 -2 6 -13 5 -11 0 -14 -3 -6 -6z"/>
<path d="M4568 2233 c7 -3 16 -2 19 1 4 3 -2 6 -13 5 -11 0 -14 -3 -6 -6z"/>
<path d="M4328 2223 c-10 -2 -18 -9 -18 -14 0 -6 10 -5 23 2 37 20 36 23 -5
12z"/>
<path d="M4921 2226 c2 -2 15 -9 29 -16 23 -12 24 -12 11 3 -7 10 -20 17 -29
17 -8 0 -13 -2 -11 -4z"/>
<path d="M4412 2205 c-11 -12 -10 -15 3 -15 8 0 15 7 15 15 0 18 -2 18 -18 0z"/>
<path d="M4275 2190 c-10 -11 -13 -20 -8 -20 13 0 38 29 31 35 -3 3 -13 -4
-23 -15z"/>
<path d="M4880 2200 c0 -5 5 -10 11 -10 5 0 7 5 4 10 -3 6 -8 10 -11 10 -2 0
-4 -4 -4 -10z"/>
<path d="M4625 2190 c3 -5 11 -10 16 -10 6 0 7 5 4 10 -3 6 -11 10 -16 10 -6
0 -7 -4 -4 -10z"/>
<path d="M4488 2183 c-24 -6 -23 -23 0 -23 10 0 19 7 19 15 0 8 -1 14 -1 14
-1 -1 -9 -3 -18 -6z"/>
<path d="M4705 2180 c3 -5 8 -10 11 -10 2 0 4 5 4 10 0 6 -5 10 -11 10 -5 0
-7 -4 -4 -10z"/>
<path d="M4753 2175 c0 -8 4 -15 9 -15 4 0 8 7 8 15 0 8 -4 15 -8 15 -5 0 -9
-7 -9 -15z"/>
<path d="M4930 2170 c0 -5 5 -10 11 -10 5 0 7 5 4 10 -3 6 -8 10 -11 10 -2 0
-4 -4 -4 -10z"/>
<path d="M4310 2160 c-8 -5 -12 -11 -10 -14 3 -2 14 2 24 10 22 15 10 19 -14
4z"/>
<path d="M4435 2160 c-3 -5 -1 -10 4 -10 6 0 11 5 11 10 0 6 -2 10 -4 10 -3 0
-8 -4 -11 -10z"/>
<path d="M4835 2150 c3 -5 11 -10 16 -10 6 0 7 5 4 10 -3 6 -11 10 -16 10 -6
0 -7 -4 -4 -10z"/>
<path d="M4628 2133 c7 -3 16 -2 19 1 4 3 -2 6 -13 5 -11 0 -14 -3 -6 -6z"/>
<path d="M4255 2120 c-3 -5 -1 -10 4 -10 6 0 11 5 11 10 0 6 -2 10 -4 10 -3 0
-8 -4 -11 -10z"/>
<path d="M4785 2110 c-3 -5 1 -10 10 -10 9 0 13 5 10 10 -3 6 -8 10 -10 10 -2
0 -7 -4 -10 -10z"/>
<path d="M4910 2110 c8 -5 20 -10 25 -10 6 0 3 5 -5 10 -8 5 -19 10 -25 10 -5
0 -3 -5 5 -10z"/>
<path d="M4950 2102 c0 -12 19 -26 26 -19 2 2 -2 10 -11 17 -9 8 -15 8 -15 2z"/>
<path d="M4385 2090 c-8 -13 5 -13 25 0 13 8 13 10 -2 10 -9 0 -20 -4 -23 -10z"/>
<path d="M4577 2083 c-13 -12 -7 -18 17 -18 18 0 22 3 14 13 -12 13 -21 15
-31 5z"/>
<path d="M4676 2073 c-6 -14 -5 -15 5 -6 7 7 10 15 7 18 -3 3 -9 -2 -12 -12z"/>
<path d="M4250 2070 c0 -5 5 -10 10 -10 6 0 10 5 10 10 0 6 -4 10 -10 10 -5 0
-10 -4 -10 -10z"/>
<path d="M4530 2070 c0 -5 5 -10 10 -10 6 0 10 5 10 10 0 6 -4 10 -10 10 -5 0
-10 -4 -10 -10z"/>
<path d="M4897 2069 c7 -7 15 -10 18 -7 3 3 -2 9 -12 12 -14 6 -15 5 -6 -5z"/>
<path d="M4325 2060 c-3 -5 -1 -10 4 -10 6 0 11 5 11 10 0 6 -2 10 -4 10 -3 0
-8 -4 -11 -10z"/>
<path d="M4410 2050 c0 -5 7 -7 15 -4 8 4 15 8 15 10 0 2 -7 4 -15 4 -8 0 -15
-4 -15 -10z"/>
<path d="M4376 2033 c-6 -14 -5 -15 5 -6 7 7 10 15 7 18 -3 3 -9 -2 -12 -12z"/>
<path d="M4855 2030 c-3 -5 -1 -10 4 -10 6 0 11 5 11 10 0 6 -2 10 -4 10 -3 0
-8 -4 -11 -10z"/>
<path d="M4236 2003 c-6 -14 -5 -15 5 -6 7 7 10 15 7 18 -3 3 -9 -2 -12 -12z"/>
<path d="M4325 2010 c-3 -5 -1 -10 4 -10 6 0 11 5 11 10 0 6 -2 10 -4 10 -3 0
-8 -4 -11 -10z"/>
<path d="M4905 2000 c3 -5 11 -10 16 -10 6 0 7 5 4 10 -3 6 -11 10 -16 10 -6
0 -7 -4 -4 -10z"/>
<path d="M5463 2889 c-32 -12 -31 -52 2 -67 25 -12 31 -23 18 -35 -3 -4 -14 0
-24 9 -12 10 -19 12 -24 4 -12 -19 16 -41 49 -38 26 3 31 8 34 33 3 26 -2 32
-30 43 -24 9 -29 15 -21 23 9 9 16 9 28 -1 18 -15 28 -9 19 13 -8 21 -24 26
-51 16z"/>
<path d="M5287 2884 c-10 -10 -9 -144 2 -144 11 0 23 132 13 142 -5 5 -11 5
-15 2z"/>
<path d="M5343 2883 c-7 -2 -13 -16 -13 -29 0 -19 8 -28 30 -35 17 -6 30 -15
30 -20 0 -15 -33 -24 -38 -11 -6 19 -34 14 -30 -4 10 -52 88 -38 88 16 0 23
-5 31 -25 36 -14 3 -25 12 -25 20 0 17 12 18 28 2 15 -15 26 -4 19 17 -6 14
-38 19 -64 8z"/>
<path d="M5232 2868 c-5 -7 -15 -30 -23 -50 -14 -40 -29 -41 -29 -2 0 38 -36
32 -44 -7 -9 -48 -7 -109 4 -109 6 0 10 15 10 34 0 45 18 56 22 14 4 -45 20
-40 40 13 l17 44 0 -37 c1 -21 5 -38 10 -38 11 0 21 50 21 106 0 44 -9 55 -28
32z"/>
<path d="M5540 2815 c0 -37 4 -65 10 -65 6 0 10 28 10 65 0 37 -4 65 -10 65
-6 0 -10 -28 -10 -65z"/>
<path d="M5593 2863 c-19 -7 -16 -88 3 -107 40 -40 92 -3 80 57 -10 51 -39 68
-83 50z m57 -38 c19 -23 8 -50 -20 -50 -21 0 -26 5 -28 33 -3 26 0 32 16 32
11 0 25 -7 32 -15z"/>
<path d="M5690 2780 c0 -61 19 -87 21 -27 l1 32 19 -42 c11 -24 24 -43 29 -43
6 0 10 25 10 56 0 34 -4 53 -10 49 -5 -3 -10 -18 -11 -33 -1 -25 -2 -24 -11 8
-11 38 -25 60 -39 60 -5 0 -9 -27 -9 -60z"/>
<path d="M5465 2710 c3 -5 8 -10 11 -10 2 0 4 5 4 10 0 6 -5 10 -11 10 -5 0
-7 -4 -4 -10z"/>
<path d="M5335 2700 c-3 -5 -1 -10 4 -10 6 0 11 5 11 10 0 6 -2 10 -4 10 -3 0
-8 -4 -11 -10z"/>
<path d="M5578 2693 c7 -3 16 -2 19 1 4 3 -2 6 -13 5 -11 0 -14 -3 -6 -6z"/>
<path d="M5380 2660 c0 -7 -7 -10 -15 -6 -8 3 -15 1 -15 -4 0 -6 11 -10 25
-10 25 0 33 14 15 25 -5 3 -10 1 -10 -5z"/>
<path d="M5411 2654 c0 -11 3 -14 6 -6 3 7 2 16 -1 19 -3 4 -6 -2 -5 -13z"/>
<path d="M5137 2653 c-4 -3 -7 -11 -7 -17 0 -6 5 -5 12 2 6 6 9 14 7 17 -3 3
-9 2 -12 -2z"/>
<path d="M5570 2638 c0 -4 7 -8 15 -8 8 0 15 4 15 8 0 5 -7 9 -15 9 -8 0 -15
-4 -15 -9z"/>
<path d="M5665 2620 c-3 -5 -2 -10 4 -10 5 0 13 5 16 10 3 6 2 10 -4 10 -5 0
-13 -4 -16 -10z"/>
<path d="M5175 2610 c3 -5 12 -7 20 -3 21 7 19 13 -6 13 -11 0 -18 -4 -14 -10z"/>
<path d="M5288 2593 c-10 -2 -18 -9 -18 -14 0 -6 8 -5 20 1 11 6 20 13 20 15
0 3 -1 4 -2 4 -2 -1 -11 -3 -20 -6z"/>
<path d="M5605 2589 c-4 -6 -5 -12 -2 -15 2 -3 7 2 10 11 7 17 1 20 -8 4z"/>
<path d="M5110 2580 c0 -5 5 -10 11 -10 5 0 7 5 4 10 -3 6 -8 10 -11 10 -2 0
-4 -4 -4 -10z"/>
<path d="M5750 2585 c0 -2 10 -10 23 -16 20 -11 21 -11 8 4 -13 16 -31 23 -31
12z"/>
<path d="M5640 2571 c0 -5 7 -12 16 -15 21 -8 21 -8 21 9 0 8 -9 15 -19 15
-10 0 -18 -4 -18 -9z"/>
<path d="M5280 2530 c0 -5 5 -10 11 -10 5 0 7 5 4 10 -3 6 -8 10 -11 10 -2 0
-4 -4 -4 -10z"/>
<path d="M5558 2533 c7 -3 16 -2 19 1 4 3 -2 6 -13 5 -11 0 -14 -3 -6 -6z"/>
<path d="M5745 2530 c3 -5 8 -10 11 -10 2 0 4 5 4 10 0 6 -5 10 -11 10 -5 0
-7 -4 -4 -10z"/>
<path d="M5095 2520 c3 -5 8 -10 11 -10 2 0 4 5 4 10 0 6 -5 10 -11 10 -5 0
-7 -4 -4 -10z"/>
<path d="M5780 2510 c0 -5 5 -10 10 -10 6 0 10 5 10 10 0 6 -4 10 -10 10 -5 0
-10 -4 -10 -10z"/>
<path d="M5430 2490 c0 -12 37 -14 44 -2 2 4 -6 9 -20 10 -13 1 -24 -3 -24 -8z"/>
<path d="M5300 2480 c20 -13 33 -13 25 0 -3 6 -14 10 -23 10 -15 0 -15 -2 -2
-10z"/>
<path d="M5090 2469 c0 -5 5 -7 10 -4 6 3 10 8 10 11 0 2 -4 4 -10 4 -5 0 -10
-5 -10 -11z"/>
<path d="M5600 2465 c7 -8 16 -12 21 -9 13 8 1 24 -18 24 -13 0 -13 -3 -3 -15z"/>
<path d="M5650 2460 c0 -5 5 -10 11 -10 5 0 7 5 4 10 -3 6 -8 10 -11 10 -2 0
-4 -4 -4 -10z"/>
<path d="M5150 2449 c-11 -7 -7 -9 18 -5 19 2 36 7 40 10 10 10 -42 6 -58 -5z"/>
<path d="M5424 2438 c-3 -4 -1 -8 5 -8 5 0 17 -3 25 -6 11 -4 15 -2 11 8 -6
16 -33 20 -41 6z"/>
<path d="M5340 2430 c0 -5 7 -7 15 -4 8 4 15 8 15 10 0 2 -7 4 -15 4 -8 0 -15
-4 -15 -10z"/>
<path d="M5555 2430 c3 -5 14 -10 23 -10 15 0 15 2 2 10 -20 13 -33 13 -25 0z"/>
<path d="M5255 2420 c3 -5 8 -10 11 -10 2 0 4 5 4 10 0 6 -5 10 -11 10 -5 0
-7 -4 -4 -10z"/>
<path d="M5735 2420 c-3 -6 0 -10 9 -10 8 0 16 -5 18 -12 3 -7 7 -8 11 -2 3 5
-3 15 -13 22 -12 7 -21 8 -25 2z"/>
<path d="M5160 2395 c-10 -12 -10 -15 4 -15 9 0 16 7 16 15 0 8 -2 15 -4 15
-2 0 -9 -7 -16 -15z"/>
<path d="M5310 2381 c-15 -4 -20 -10 -13 -14 13 -8 43 1 43 14 0 5 -1 9 -2 8
-2 -1 -14 -4 -28 -8z"/>
<path d="M5358 2383 c7 -3 16 -2 19 1 4 3 -2 6 -13 5 -11 0 -14 -3 -6 -6z"/>
<path d="M5700 2380 c0 -5 5 -10 10 -10 6 0 10 5 10 10 0 6 -4 10 -10 10 -5 0
-10 -4 -10 -10z"/>
<path d="M5093 2368 c-31 -15 -29 -30 2 -16 14 6 25 15 25 20 0 9 1 10 -27 -4z"/>
<path d="M5565 2370 c-4 -6 3 -10 14 -10 25 0 27 6 6 13 -8 4 -17 2 -20 -3z"/>
<path d="M5215 2360 c-3 -5 1 -10 9 -10 9 0 16 5 16 10 0 6 -4 10 -9 10 -6 0
-13 -4 -16 -10z"/>
<path d="M5730 2359 c0 -5 5 -7 10 -4 6 3 10 8 10 11 0 2 -4 4 -10 4 -5 0 -10
-5 -10 -11z"/>
<path d="M5625 2350 c3 -5 10 -10 16 -10 5 0 9 5 9 10 0 6 -7 10 -16 10 -8 0
-12 -4 -9 -10z"/>
<path d="M5670 2331 c0 -5 7 -12 16 -15 24 -9 28 -7 14 9 -14 17 -30 20 -30 6z"/>
<path d="M5274 2318 c-3 -4 6 -8 20 -8 14 0 26 4 26 8 0 4 -9 8 -21 8 -11 0
-23 -4 -25 -8z"/>
<path d="M5530 2320 c0 -7 24 -20 36 -20 13 0 1 19 -16 23 -11 3 -20 2 -20 -3z"/>
<path d="M5605 2293 c11 -3 24 -9 29 -13 5 -5 15 -6 23 -3 22 9 -5 23 -42 22
-21 -1 -24 -3 -10 -6z"/>
<path d="M5756 2285 c4 -8 11 -15 16 -15 6 0 5 6 -2 15 -7 8 -14 15 -16 15 -2
0 -1 -7 2 -15z"/>
<path d="M5393 2275 c0 -8 4 -12 9 -9 4 3 8 9 8 15 0 5 -4 9 -8 9 -5 0 -9 -7
-9 -15z"/>
<path d="M5310 2265 c0 -8 2 -15 4 -15 2 0 6 7 10 15 3 8 1 15 -4 15 -6 0 -10
-7 -10 -15z"/>
<path d="M5469 2269 c-6 -3 1 -9 15 -11 14 -3 27 0 29 6 5 13 -27 16 -44 5z"/>
<path d="M5686 2272 c-3 -6 1 -13 10 -16 23 -9 28 -2 10 13 -8 7 -17 8 -20 3z"/>
<path d="M5080 2260 c-8 -5 -12 -11 -9 -14 2 -3 11 -1 19 4 8 5 12 11 9 14 -2
3 -11 1 -19 -4z"/>
<path d="M5240 2260 c0 -5 5 -10 10 -10 6 0 10 5 10 10 0 6 -4 10 -10 10 -5 0
-10 -4 -10 -10z"/>
<path d="M5590 2249 c0 -5 5 -7 10 -4 6 3 10 8 10 11 0 2 -4 4 -10 4 -5 0 -10
-5 -10 -11z"/>
<path d="M5145 2230 c-19 -8 -19 -9 3 -9 12 -1 22 4 22 9 0 6 -1 10 -2 9 -2 0
-12 -4 -23 -9z"/>
<path d="M5340 2220 c-12 -8 -11 -10 8 -10 12 0 22 5 22 10 0 13 -11 13 -30 0z"/>
<path d="M5465 2210 c-3 -5 -2 -10 4 -10 5 0 13 5 16 10 3 6 2 10 -4 10 -5 0
-13 -4 -16 -10z"/>
<path d="M5550 2206 c0 -2 9 -6 20 -9 11 -3 18 -1 14 4 -5 9 -34 13 -34 5z"/>
<path d="M5715 2185 c17 -7 34 -10 39 -7 12 7 -21 21 -49 20 -15 0 -13 -3 10
-13z"/>
<path d="M5634 2171 c8 -12 46 -21 46 -11 0 8 -24 20 -41 20 -6 0 -8 -4 -5 -9z"/>
<path d="M5275 2160 c-19 -7 -19 -8 -2 -15 19 -8 31 -2 26 13 -2 5 -13 6 -24
2z"/>
<path d="M5070 2150 c-8 -5 -12 -11 -10 -14 3 -2 14 2 24 10 22 15 10 19 -14
4z"/>
<path d="M5191 2134 c0 -11 3 -14 6 -6 3 7 2 16 -1 19 -3 4 -6 -2 -5 -13z"/>
<path d="M5578 2133 c7 -3 16 -2 19 1 4 3 -2 6 -13 5 -11 0 -14 -3 -6 -6z"/>
<path d="M5120 2120 c-9 -6 -10 -10 -3 -10 6 0 15 5 18 10 8 12 4 12 -15 0z"/>
<path d="M5745 2120 c-3 -5 -1 -10 4 -10 6 0 11 5 11 10 0 6 -2 10 -4 10 -3 0
-8 -4 -11 -10z"/>
<path d="M5317 2108 c-10 -5 -25 -7 -33 -4 -8 3 -14 1 -14 -4 0 -14 57 -13 66
1 5 8 9 8 14 -1 5 -9 9 -8 13 2 6 17 -21 21 -46 6z"/>
<path d="M5425 2110 c-3 -5 -2 -10 4 -10 5 0 13 5 16 10 3 6 2 10 -4 10 -5 0
-13 -4 -16 -10z"/>
<path d="M5200 2090 c0 -5 9 -10 20 -10 11 0 20 5 20 10 0 6 -9 10 -20 10 -11
0 -20 -4 -20 -10z"/>
<path d="M5545 2090 c3 -5 8 -10 11 -10 2 0 4 5 4 10 0 6 -5 10 -11 10 -5 0
-7 -4 -4 -10z"/>
<path d="M5611 2074 c0 -11 3 -14 6 -6 3 7 2 16 -1 19 -3 4 -6 -2 -5 -13z"/>
<path d="M5150 2070 c0 -5 5 -10 10 -10 6 0 10 5 10 10 0 6 -4 10 -10 10 -5 0
-10 -4 -10 -10z"/>
<path d="M5710 2076 c0 -2 7 -7 16 -10 8 -3 12 -2 9 4 -6 10 -25 14 -25 6z"/>
<path d="M5254 2043 c-18 -14 -16 -14 16 -8 43 9 60 23 28 23 -13 0 -33 -7
-44 -15z"/>
<path d="M5335 2050 c3 -5 13 -10 21 -10 8 0 14 5 14 10 0 6 -9 10 -21 10 -11
0 -17 -4 -14 -10z"/>
<path d="M5482 2045 c-11 -12 -10 -15 3 -15 8 0 15 7 15 15 0 18 -2 18 -18 0z"/>
<path d="M5085 2040 c3 -5 8 -10 11 -10 2 0 4 5 4 10 0 6 -5 10 -11 10 -5 0
-7 -4 -4 -10z"/>
<path d="M5175 2030 c-4 -6 5 -10 20 -10 15 0 24 4 20 10 -3 6 -12 10 -20 10
-8 0 -17 -4 -20 -10z"/>
<path d="M5549 2027 c7 -7 14 -8 21 -1 6 6 2 10 -12 11 -16 2 -18 -1 -9 -10z"/>
<path d="M5705 2020 c3 -5 8 -10 11 -10 2 0 4 5 4 10 0 6 -5 10 -11 10 -5 0
-7 -4 -4 -10z"/>
<path d="M5630 2000 c20 -13 33 -13 25 0 -3 6 -14 10 -23 10 -15 0 -15 -2 -2
-10z"/>
<path d="M5053 1983 c-13 -8 -23 -20 -23 -26 0 -6 10 -1 23 10 12 11 29 23 37
26 13 5 13 5 0 6 -8 0 -25 -7 -37 -16z"/>
<path d="M5710 1961 c0 -9 30 -24 36 -18 2 1 -6 8 -16 15 -11 7 -20 8 -20 3z"/>
<path d="M6630 2209 c-24 -45 -23 -77 1 -92 27 -17 64 0 87 41 24 44 23 46
-35 76 l-32 16 -21 -41z"/>
<path d="M4108 2258 c-16 -5 -28 -13 -28 -18 0 -5 14 -3 30 3 17 6 30 15 30
19 0 4 -1 8 -2 7 -2 0 -15 -5 -30 -11z"/>
<path d="M1113 1603 c-22 -8 -14 -54 14 -92 38 -51 43 -52 80 -24 36 28 36 32
-15 87 -31 34 -50 41 -79 29z"/>
<path d="M6121 1558 c-20 -24 -22 -31 -10 -39 8 -5 18 -9 22 -9 5 0 24 -7 43
-16 19 -9 37 -14 40 -12 7 8 -49 108 -61 107 -5 0 -21 -14 -34 -31z"/>
<path d="M1431 1420 c-45 -33 -81 -83 -81 -113 0 -26 27 -68 57 -91 24 -18 25
-18 45 5 12 13 48 52 81 86 l61 63 -25 26 c-24 26 -70 54 -87 54 -5 0 -28 -14
-51 -30z"/>
<path d="M4289 593 c-40 -10 -25 -83 16 -83 44 0 63 60 26 80 -11 5 -21 9 -23
9 -2 -1 -10 -3 -19 -6z"/>
<path d="M4320 453 c-50 -19 -34 -113 20 -113 47 0 66 64 30 100 -21 21 -25
22 -50 13z"/>
<path d="M3502 528 c-7 -7 -12 -31 -12 -55 0 -51 23 -70 64 -51 21 9 26 18 26
45 0 19 -5 43 -10 54 -12 21 -50 25 -68 7z"/>
<path d="M3879 517 c-14 -31 2 -91 25 -95 10 -2 28 -1 42 2 20 5 24 12 24 44
-1 47 -20 72 -54 72 -18 0 -30 -7 -37 -23z"/>
</g>
</svg>
